<svg width="512" height="512" viewBox="0 0 512 512" xmlns="http://www.w3.org/2000/svg">
  <!-- Background Circle -->
  <circle cx="256" cy="256" r="240" fill="#000000" stroke="#333333" stroke-width="4"/>
  
  <!-- Outer Ring -->
  <circle cx="256" cy="256" r="220" fill="none" stroke="#666666" stroke-width="2" opacity="0.3"/>
  
  <!-- Document Stack Background -->
  <g transform="translate(256, 256)">
    <!-- Back Document -->
    <rect x="-80" y="-60" width="160" height="120" rx="8" fill="#1a1a1a" stroke="#444444" stroke-width="2" transform="translate(12, 12) rotate(3)"/>
    
    <!-- Middle Document -->
    <rect x="-80" y="-60" width="160" height="120" rx="8" fill="#2d2d2d" stroke="#555555" stroke-width="2" transform="translate(6, 6) rotate(-2)"/>
    
    <!-- Front Document -->
    <rect x="-80" y="-60" width="160" height="120" rx="8" fill="#ffffff" stroke="#dddddd" stroke-width="2"/>
    
    <!-- Document Content Lines -->
    <g fill="#333333">
      <rect x="-60" y="-40" width="80" height="3" rx="1"/>
      <rect x="-60" y="-30" width="100" height="3" rx="1"/>
      <rect x="-60" y="-20" width="70" height="3" rx="1"/>
      <rect x="-60" y="-10" width="90" height="3" rx="1"/>
      <rect x="-60" y="0" width="60" height="3" rx="1"/>
      <rect x="-60" y="10" width="85" height="3" rx="1"/>
      <rect x="-60" y="20" width="75" height="3" rx="1"/>
    </g>
    
    <!-- Code Brackets -->
    <g fill="#f97316" stroke="#f97316" stroke-width="3" fill="none">
      <path d="M -45 -35 L -55 -35 L -55 -15 L -45 -15" stroke-linecap="round"/>
      <path d="M 45 -35 L 55 -35 L 55 -15 L 45 -15" stroke-linecap="round"/>
    </g>
    
    <!-- Terminal Cursor -->
    <rect x="30" y="17" width="3" height="8" fill="#10b981">
      <animate attributeName="opacity" values="1;0;1" dur="1s" repeatCount="indefinite"/>
    </rect>
    
    <!-- Corner Folded Page Effect -->
    <path d="M 60 -60 L 60 -40 L 40 -40 Z" fill="#f0f0f0" stroke="#dddddd" stroke-width="1"/>
    <path d="M 60 -40 L 40 -40 L 60 -60" fill="#e0e0e0"/>
  </g>
  
  <!-- Decorative Tech Elements -->
  <g opacity="0.6">
    <!-- Circuit Pattern -->
    <g stroke="#333333" stroke-width="2" fill="none">
      <path d="M 80 120 L 120 120 L 120 80"/>
      <path d="M 432 120 L 392 120 L 392 80"/>
      <path d="M 80 392 L 120 392 L 120 432"/>
      <path d="M 432 392 L 392 392 L 392 432"/>
    </g>
    
    <!-- Corner Dots -->
    <circle cx="120" cy="80" r="4" fill="#f97316"/>
    <circle cx="392" cy="80" r="4" fill="#10b981"/>
    <circle cx="120" cy="432" r="4" fill="#3b82f6"/>
    <circle cx="392" cy="432" r="4" fill="#ec4899"/>
  </g>
  
  <!-- Bottom Text -->
  <text x="256" y="440" text-anchor="middle" font-family="Arial, sans-serif" font-size="24" font-weight="bold" fill="#ffffff">
    CheatSheets
  </text>
  
  <!-- Subtitle -->
  <text x="256" y="465" text-anchor="middle" font-family="Arial, sans-serif" font-size="14" fill="#999999">
    Developer Reference
  </text>
</svg>
